HIERARCHY
ROOT Hips
{
	OFFSET 0.000000 0.000000 0.000000
	CHANNELS 6 Xposition Yposition Zposition Zrotation Yrotation Xrotation 
	JOINT LHipJoint
	{
		OFFSET 0.000000 0.000000 0.000000
		CHANNELS 3 Zrotation Yrotation Xrotation
		JOINT LeftUpLeg
		{
			OFFSET 1.363060 -1.794630 0.839290
			CHANNELS 3 Zrotation Yrotation Xrotation
			JOINT LeftLeg
			{
				OFFSET 2.448110 -6.726130 0.000000
				CHANNELS 3 Zrotation Yrotation Xrotation
				JOINT LeftFoot
				{
					OFFSET 2.562200 -7.039590 0.000000
					CHANNELS 3 Zrotation Yrotation Xrotation
					JOINT LeftToeBase
					{
						OFFSET 0.157640 -0.433110 2.322550
						CHANNELS 3 Zrotation Yrotation Xrotation
						End Site
						{
							OFFSET 0.000000 0.000000 0.000000
						}
					}
				}
			}
		}
	}
	JOINT RHipJoint
	{
		OFFSET 0.000000 0.000000 0.000000
		CHANNELS 3 Zrotation Yrotation Xrotation
		JOINT RightUpLeg
		{
			OFFSET -1.305520 -1.794630 0.839290
			CHANNELS 3 Zrotation Yrotation Xrotation
			JOINT RightLeg
			{
				OFFSET -2.542530 -6.985550 0.000000
				CHANNELS 3 Zrotation Yrotation Xrotation
				JOINT RightFoot
				{
					OFFSET -2.568260 -7.056230 0.000000
					CHANNELS 3 Zrotation Yrotation Xrotation
					JOINT RightToeBase
					{
						OFFSET -0.164730 -0.452590 2.363150
						CHANNELS 3 Zrotation Yrotation Xrotation
						End Site
						{
							OFFSET 0.000000 0.000000 0.000000
						}
					}
				}
			}
		}
	}
	JOINT LowerBack
	{
		OFFSET 0.000000 0.000000 0.000000
		CHANNELS 3 Zrotation Yrotation Xrotation
		JOINT Spine
		{
			OFFSET 0.028270 2.035590 -0.193380
			CHANNELS 3 Zrotation Yrotation Xrotation
			JOINT Spine1
			{
				OFFSET 0.056720 2.048850 -0.042750
				CHANNELS 3 Zrotation Yrotation Xrotation
				JOINT Neck
				{
					OFFSET 0.000000 0.000000 0.000000
					CHANNELS 3 Zrotation Yrotation Xrotation
					JOINT Neck1
					{
						OFFSET -0.054170 1.746240 0.172020
						CHANNELS 3 Zrotation Yrotation Xrotation
						JOINT Head
						{
							OFFSET 0.104070 1.761360 -0.123970
							CHANNELS 3 Zrotation Yrotation Xrotation
							End Site
							{
								OFFSET 0.000000 0.000000 0.000000
							}
						}
					}
				}
				JOINT LeftShoulder
				{
					OFFSET 0.000000 0.000000 0.000000
					CHANNELS 3 Zrotation Yrotation Xrotation
					JOINT LeftArm
					{
						OFFSET 3.362410 1.200890 -0.311210
						CHANNELS 3 Zrotation Yrotation Xrotation
						JOINT LeftForeArm
						{
							OFFSET 4.983000 -0.000000 -0.000000
							CHANNELS 3 Zrotation Yrotation Xrotation
							JOINT LeftHand
							{
								OFFSET 3.483560 -0.000000 -0.000000
								CHANNELS 3 Zrotation Yrotation Xrotation
								JOINT LeftFingerBase
								{
									OFFSET 0.000000 0.000000 0.000000
									CHANNELS 3 Zrotation Yrotation Xrotation
									JOINT LeftHandIndex1
									{
										OFFSET 0.715260 -0.000000 -0.000000
										CHANNELS 3 Zrotation Yrotation Xrotation
										End Site
										{
											OFFSET 0.000000 0.000000 0.000000
										}
									}
								}
								JOINT LThumb
								{
									OFFSET 0.000000 0.000000 0.000000
									CHANNELS 3 Zrotation Yrotation Xrotation
									End Site
									{
										OFFSET 0.000000 0.000000 0.000000
									}
								}
							}
						}
					}
				}
				JOINT RightShoulder
				{
					OFFSET 0.000000 0.000000 0.000000
					CHANNELS 3 Zrotation Yrotation Xrotation
					JOINT RightArm
					{
						OFFSET -3.136600 1.374050 -0.404650
						CHANNELS 3 Zrotation Yrotation Xrotation
						JOINT RightForeArm
						{
							OFFSET -5.241900 -0.000000 -0.000000
							CHANNELS 3 Zrotation Yrotation Xrotation
							JOINT RightHand
							{
								OFFSET -3.444170 -0.000000 -0.000000
								CHANNELS 3 Zrotation Yrotation Xrotation
								JOINT RightFingerBase
								{
									OFFSET 0.000000 0.000000 0.000000
									CHANNELS 3 Zrotation Yrotation Xrotation
									JOINT RightHandIndex1
									{
										OFFSET -0.622530 -0.000000 -0.000000
										CHANNELS 3 Zrotation Yrotation Xrotation
										End Site
										{
											OFFSET 0.000000 0.000000 0.000000
										}
									}
								}
								JOINT RThumb
								{
									OFFSET 0.000000 0.000000 0.000000
									CHANNELS 3 Zrotation Yrotation Xrotation
									End Site
									{
										OFFSET 0.000000 0.000000 0.000000
									}
								}
							}
						}
					}
				}
			}
		}
	}
}
MOTION
Frames: 10
Frame Time: 0.008333
1.037368 17.805501 -26.845678 1.228203 38.950382 3.494289 -6.243260 -2.144223 0.112717 -9.236478 -10.274284 -11.135874 0.297632 9.269309 24.836603 0.968384 -0.793708 4.532577 0.195000 -2.843400 -7.843100 4.652253 1.484597 0.889225 9.727575 -12.885944 -7.776464 -1.504874 -9.561841 25.062042 9.702943 -36.158681 -23.203807 -0.038200 -1.261400 3.468500 -0.995404 5.811391 0.845541 0.746295 7.417367 -1.150172 0.917179 3.914191 -0.705711 8.345504 22.583674 7.067153 -3.818424 28.815424 -3.530919 -4.006300 14.163000 2.471100 3.707551 -2.439320 0.552554 -92.027391 2.327064 21.584294 15.380669 -24.598911 -3.155952 0.203904 0.359268 -7.319496 13.648149 1.366163 0.244700 -7.125000 0.000000 0.000000 -10.449200 30.935600 3.644900 -2.891489 0.606491 0.327096 83.836951 -4.753837 16.874461 -15.859516 25.476553 -3.563348 0.122451 -0.499386 -11.116667 -16.918327 -1.222742 0.208800 7.125000 0.000000 0.000000 7.625300 -30.646400 2.694600 
1.036569 17.806600 -26.843180 1.256454 38.999867 3.499270 -6.257146 -2.144412 0.113692 -9.241526 -10.302291 -11.102194 0.292465 9.263691 24.814140 0.972101 -0.804817 4.547037 0.190300 -2.809700 -7.749400 4.636228 1.486145 0.884298 9.737162 -12.842228 -7.731727 -1.501565 -9.569411 25.102428 9.621152 -36.024238 -23.462397 -0.044800 -1.365400 3.754700 -1.435064 5.022269 0.706046 1.447804 6.372026 -0.723840 2.171210 3.368924 -0.095013 5.633741 23.498898 5.969421 -3.595611 29.914709 -3.605382 -3.511200 14.673000 2.309300 3.738399 -2.393831 0.527609 -93.824073 1.616642 18.770277 15.361966 -24.640286 -3.162354 0.209249 0.350787 -6.689606 13.706536 1.136348 0.192300 -7.125000 0.000000 0.000000 -10.378400 30.710600 3.676300 -2.841556 0.594470 0.300225 82.964719 -3.358156 17.361019 -15.568454 25.087515 -3.438966 0.114828 -0.485042 -9.286828 -16.200490 -1.158431 0.186400 7.125000 0.000000 0.000000 8.178200 -30.589500 2.904700 
1.039766 17.803303 -26.840982 1.433555 39.089670 3.579323 -6.276114 -2.143553 0.113138 -9.394999 -10.321927 -11.060837 0.290208 9.270836 24.823077 0.980105 -0.843139 4.510146 0.193300 -2.831600 -7.810100 4.617732 1.477290 0.882017 9.589438 -13.015908 -7.734339 -1.517529 -9.571800 25.108579 9.692374 -36.146231 -23.267391 -0.040800 -1.303600 3.584500 -1.954416 4.277623 0.609026 2.105586 5.386705 -0.307842 3.400839 2.842474 0.512713 3.039251 24.322093 4.659049 -3.068243 30.951752 -3.729103 -3.258800 15.164300 2.321700 3.765294 -2.343787 0.505614 -95.542339 0.942617 16.400990 15.454046 -24.828375 -3.210702 0.210579 0.351795 -6.449650 13.776206 1.189834 0.205700 -7.125000 0.000000 0.000000 -10.329700 30.764000 3.645100 -2.790900 0.591185 0.279725 82.189545 -2.023943 17.602860 -15.291612 24.717330 -3.330579 0.102076 -0.476933 -7.194164 -16.167651 -0.910468 0.117500 7.125000 0.000000 0.000000 8.177900 -30.345800 2.952700 
1.038667 17.802604 -26.837186 1.415137 39.188874 3.550939 -6.269780 -2.146123 0.112710 -9.374937 -10.303223 -11.054991 0.289718 9.269426 24.825269 1.011109 -0.961918 4.519751 0.192000 -2.821500 -7.782300 4.621515 1.476489 0.881333 9.632006 -13.023995 -7.701557 -1.518402 -9.577406 25.120516 9.716872 -36.230819 -23.348960 -0.041100 -1.309200 3.600000 -1.880678 4.450567 0.585862 1.962541 5.614099 -0.298265 3.169444 2.960500 0.529736 2.794233 24.328254 4.647283 -2.903578 30.853767 -4.426663 -3.235800 15.097700 1.980700 3.755352 -2.368650 0.506819 -95.159264 0.832930 16.993072 15.442575 -24.804022 -3.204653 0.210317 0.353798 -6.567501 13.808339 1.279334 0.227400 -7.125000 0.000000 0.000000 -10.314900 30.853700 3.617300 -2.801639 0.573923 0.281205 82.399605 -2.524074 17.513230 -15.557565 25.064279 -3.434647 0.106086 -0.482031 -7.766915 -16.298987 -0.903452 0.114500 7.125000 0.000000 0.000000 8.074800 -30.333300 2.917200 
1.038567 17.801305 -26.833889 1.442793 39.278295 3.542793 -6.271617 -2.145391 0.112987 -9.396480 -10.316581 -11.030954 0.290486 9.273537 24.836953 1.026574 -1.023768 4.508316 0.192200 -2.823600 -7.788200 4.618527 1.474020 0.881686 9.629614 -13.061023 -7.664027 -1.520594 -9.579176 25.125499 9.736734 -36.293591 -23.396616 -0.041400 -1.312700 3.609600 -1.965467 4.339864 0.558696 2.062675 5.467373 -0.222177 3.359848 2.880644 0.646974 2.327340 24.453806 4.479504 -2.857543 31.003881 -4.516061 -3.153300 15.167000 1.901700 3.758141 -2.364216 0.503327 -95.402178 0.698185 16.702715 15.478349 -24.862945 -3.220732 0.210425 0.354906 -6.576678 13.837124 1.312917 0.235800 -7.125000 0.000000 0.000000 -10.296200 30.887100 3.602100 -2.796367 0.569411 0.276251 82.372623 -2.335173 17.341118 -15.491966 24.979487 -3.409524 0.103176 -0.480647 -7.339897 -16.269044 -0.843014 0.097300 7.125000 0.000000 0.000000 8.092500 -30.273000 2.935500 
1.038067 17.800006 -26.830592 1.453477 39.365305 3.523847 -6.271378 -2.143720 0.112973 -9.405704 -10.341427 -11.004203 0.292198 9.278130 24.851087 1.037157 -1.067220 4.493966 0.192800 -2.827700 -7.799300 4.618237 1.472069 0.882762 9.641226 -13.088540 -7.625494 -1.522027 -9.581078 25.129908 9.758811 -36.363666 -23.450825 -0.041500 -1.314800 3.615400 -1.975053 4.344682 0.543820 2.055616 5.473598 -0.221632 3.353470 2.883836 0.652356 2.471697 24.418332 4.610977 -2.886638 30.963525 -4.462277 -3.191500 15.151700 1.926000 3.756444 -2.365666 0.504775 -95.360914 0.717012 16.822842 15.519471 -24.918842 -3.236768 0.209945 0.357029 -6.673112 13.861740 1.366690 0.248800 -7.125000 0.000000 0.000000 -10.282900 30.940200 3.584000 -2.800204 0.568546 0.275582 82.493129 -2.343324 17.079254 -15.430152 24.902015 -3.387253 0.101210 -0.480662 -7.170528 -16.298248 -0.807012 0.086900 7.125000 0.000000 0.000000 8.066900 -30.236500 2.933200 
1.037168 17.798907 -26.827494 1.438321 39.443894 3.492056 -6.266761 -2.141755 0.112329 -9.395939 -10.364459 -10.984072 0.294679 9.282737 24.866743 1.046187 -1.104357 4.482408 0.193400 -2.831900 -7.811100 4.622113 1.471999 0.883930 9.672066 -13.097180 -7.589371 -1.522224 -9.583819 25.136760 9.773822 -36.422915 -23.528422 -0.042200 -1.325100 3.643700 -1.860137 4.544664 0.551948 1.871856 5.738761 -0.312669 3.021371 3.024808 0.516352 3.420696 24.147072 5.033637 -2.977094 30.638171 -4.276658 -3.373200 15.003900 2.073200 3.750368 -2.374232 0.513497 -94.855190 0.888395 17.609900 15.552736 -24.946849 -3.245989 0.208093 0.359053 -6.864131 13.834340 1.405154 0.257300 -7.125000 0.000000 0.000000 -10.308300 30.977200 3.583900 -2.820077 0.571216 0.278822 82.907591 -2.455415 16.477912 -15.278266 24.713830 -3.332421 0.099457 -0.481298 -7.229900 -16.316471 -0.818425 0.090200 7.125000 0.000000 0.000000 8.055300 -30.247900 2.926700 
1.036169 17.797908 -26.824797 1.417683 39.512755 3.458097 -6.263461 -2.140136 0.112127 -9.379642 -10.379789 -10.970952 0.297755 9.288373 24.884897 1.055216 -1.140214 4.471046 0.194400 -2.839100 -7.831100 4.624126 1.472649 0.884390 9.708153 -13.100343 -7.555742 -1.522230 -9.586555 25.144684 9.786038 -36.475220 -23.606394 -0.042900 -1.336600 3.675300 -1.801483 4.641025 0.557496 1.790797 5.867238 -0.348359 2.868207 3.091647 0.460488 3.989542 23.972025 5.246067 -3.034952 30.449006 -4.019496 -3.472400 14.922200 2.224400 3.748461 -2.373292 0.517540 -94.609931 0.953321 18.032309 15.589439 -24.987821 -3.257871 0.205935 0.360089 -6.996012 13.777087 1.422001 0.260100 -7.125000 0.000000 0.000000 -10.354300 30.992400 3.596500 -2.827970 0.577232 0.281671 83.106165 -2.516214 16.161305 -15.192375 24.606250 -3.301277 0.098642 -0.481317 -7.254759 -16.314795 -0.835850 0.095400 7.125000 0.000000 0.000000 8.059000 -30.265900 2.924500 
1.034970 17.797009 -26.822599 1.390913 39.572434 3.423832 -6.259832 -2.139169 0.111422 -9.358217 -10.388869 -10.965214 0.301119 9.294535 24.904251 1.063328 -1.172268 4.462564 0.195100 -2.844300 -7.845700 4.626108 1.473893 0.884161 9.747266 -13.104829 -7.531070 -1.522563 -9.589608 25.153496 9.796723 -36.520314 -23.671102 -0.043700 -1.349300 3.710500 -1.745557 4.729901 0.568565 1.723496 5.986162 -0.358837 2.736931 3.151984 0.436889 4.373509 23.834976 5.316341 -3.044201 30.298165 -3.826150 -3.523600 14.854200 2.339600 3.747889 -2.370976 0.520166 -94.398398 0.952402 18.409613 15.622083 -25.024928 -3.268821 0.204252 0.360991 -7.106663 13.736469 1.439275 0.263300 -7.125000 0.000000 0.000000 -10.387300 31.008600 3.604200 -2.832845 0.583555 0.284555 83.284706 -2.594608 15.884948 -15.159396 24.566478 -3.289941 0.098461 -0.481659 -7.268824 -16.299737 -0.858853 0.101900 7.125000 0.000000 0.000000 8.073000 -30.289200 2.925200 
1.033871 17.796109 -26.820701 1.370523 39.626255 3.396479 -6.256706 -2.139407 0.111101 -9.340170 -10.381222 -10.970184 0.304365 9.300452 24.923920 1.075379 -1.219061 4.459460 0.195700 -2.848800 -7.858100 4.627045 1.474993 0.883681 9.779521 -13.114844 -7.515166 -1.523675 -9.592990 25.163282 9.809877 -36.566050 -23.716991 -0.044100 -1.356100 3.729100 -1.716586 4.775721 0.577844 1.697249 6.047744 -0.352752 2.680599 3.182626 0.437765 4.511535 23.768919 5.317698 -3.018915 30.224593 -3.719478 -3.530600 14.820500 2.392600 3.747639 -2.368633 0.520857 -94.298509 0.926470 18.619316 15.656247 -25.068413 -3.281458 0.203259 0.362081 -7.190099 13.725703 1.465205 0.269100 -7.125000 0.000000 0.000000 -10.398500 31.033800 3.601800 -2.834154 0.588148 0.286314 83.388728 -2.682572 15.713340 -15.164710 24.574779 -3.292266 0.098739 -0.481829 -7.236348 -16.261507 -0.886748 0.109800 7.125000 0.000000 0.000000 8.105100 -30.317400 2.931500 
